<svg id="レイヤー_1" xmlns="http://www.w3.org/2000/svg" viewBox="0 0 152 30"><path class="st0" d="M32.9 21.7H21.7c-.3 0-.6-.3-.5-.7l5.2-14.3c.1-.4.6-.7 1.1-.7h11.2c.3 0 .6.3.5.7L34 21c-.2.4-.7.7-1.1.7zm7.3-18.3H26.9c-1.2 0-2.2.7-2.6 1.8l-5.8 15.9c-.5 1.3.5 2.6 1.9 2.6h4.1l-2.8 5.4 6.8-5.4h5.3c1.2 0 2.2-.7 2.6-1.8L42.2 6c.4-1.2-.6-2.6-2-2.6zM16.2 23.4s-7.5-6.2-16.2.1l7.2-20c8.6-5.9 16.2-.1 16.2-.1l-7.2 20zM48.4 3.3h9.4c1.8 0 3.3.3 4.5.8 1.1.5 2.1 1.2 2.8 2.2.7.9 1.3 2 1.6 3.3.3 1.2.5 2.6.5 3.9 0 2.2-.2 3.9-.7 5.1s-1.2 2.2-2.1 3-1.8 1.4-2.8 1.6c-1.4.4-2.6.6-3.8.6h-9.4V3.3zm6.3 4.6V19h1.5c1.3 0 2.3-.1 2.8-.4.6-.3 1-.8 1.3-1.5s.5-1.9.5-3.5c0-2.2-.4-3.6-1.1-4.4S57.8 8 56.2 8h-1.5zM70.1 8.9h5.3v2.4c.5-1 1-1.8 1.6-2.2.5-.4 1.2-.6 2-.6s1.7.3 2.7.8l-1.8 4c-.7-.3-1.2-.4-1.6-.4-.7 0-1.3.3-1.7.9-.6.9-.9 2.5-.9 4.8v5H70V8.9zM79.9 18h6v5.7h-6V18zM99.6 3.3h6.3v11.1c0 2.3-.2 4.1-.6 5.3s-1.2 2.2-2.5 3.1c-1.2.8-2.8 1.3-4.8 1.3-2.1 0-3.7-.3-4.8-.8-1.1-.6-2-1.4-2.6-2.4-.6-1.1-1-2.4-1.1-4l6-.8c0 .9.1 1.6.2 2s.4.8.8 1.1c.2.2.6.3 1 .3.7 0 1.2-.3 1.6-.8.3-.5.5-1.4.5-2.6V3.3zM109.1 13.5c0-3.3.9-5.9 2.8-7.8s4.4-2.8 7.7-2.8c3.4 0 6 .9 7.8 2.7s2.8 4.4 2.8 7.7c0 2.4-.4 4.3-1.2 5.9-.8 1.5-2 2.7-3.5 3.6-1.5.8-3.4 1.3-5.7 1.3s-4.2-.4-5.7-1.1-2.7-1.9-3.7-3.5c-.9-1.6-1.3-3.6-1.3-6zm6.3 0c0 2.1.4 3.5 1.1 4.4.8.9 1.8 1.3 3.1 1.3 1.4 0 2.4-.4 3.1-1.3s1.1-2.5 1.1-4.7c0-1.9-.4-3.3-1.2-4.2s-1.8-1.3-3.1-1.3-2.3.4-3.1 1.3c-.6 1-1 2.5-1 4.5zM129.8 3.3h7l4.1 6.9 4.1-6.9h7l-7.9 11.8v8.5h-6.3v-8.5l-8-11.8z"/></svg>