<?xml version="1.0" encoding="utf-8"?>
<svg version="1.1" xmlns="http://www.w3.org/2000/svg" xmlns:xlink="http://www.w3.org/1999/xlink" x="0px"
	 y="0px" viewBox="0 0 300 300" style="enable-background:new 0 0 300 300;" xml:space="preserve">
  <title>Pr.JOY</title>
  <path d="M0,0v300h300V0H0z M268.1,143.4c-5.4-2.3-9.7-3.4-12.9-3.4c-5.7-0.2-11,2.6-14,7.4c-4.7,7-7.1,20.1-7.1,39.3v40.2H188V107h43v19.6c4.1-8.5,8.4-14.3,12.8-17.5c4.4-3.2,9.8-4.8,16.3-4.8c6.8,0,14.2,2.1,22.2,6.3L268.1,143.4z M29,61.5H114c18.5,0,32.3,4.4,41.6,13.2c9.2,8.8,13.8,21.3,13.8,37.6c0,16.7-5,29.7-15.1,39.1c-10,9.4-25.4,14.1-45.9,14.1h-28v61.3H29V61.5zM80.3,131.9h12.5c9.8,0,16.8-1.7,20.7-5.1c4-3.4,6-7.8,6-13.1c0-5.2-1.7-9.6-5.2-13.2c-3.5-3.6-10-5.4-19.5-5.4H80.3V131.9z"/>
</svg>
