<?xml version="1.0" encoding="utf-8"?>
<svg version="1.1" xmlns="http://www.w3.org/2000/svg" xmlns:xlink="http://www.w3.org/1999/xlink" x="0px"
	 y="0px" viewBox="0 0 300 300" style="enable-background:new 0 0 300 300;" xml:space="preserve">
  <title>Dr.JOY</title>
  <path d="M84.58,98.92H71.83V189.3H84.35q16,0,22.79-3.55t10.61-12.41q3.83-8.86,3.84-28.72,0-26.29-8.58-36T84.58,98.92Z"/><path d="M0,0V300H300V0H0ZM166.89,184.73a68.07,68.07,0,0,1-16.76,24.49q-10.72,9.87-23,13.14a118.54,118.54,0,0,1-30.46,4.51H20.71V61.46H96.65q22.45,0,36.28,6.09A59,59,0,0,1,155.77,85a72.41,72.41,0,0,1,13.09,26.52,123,123,0,0,1,4.06,32Q172.92,170.12,166.89,184.73Zm110.45-41.35Q269.21,140,264.47,140a15.86,15.86,0,0,0-14,7.45q-7.11,10.49-7.11,39.27v40.17H197.22V107h43v19.63q6.2-12.75,12.81-17.55t16.3-4.8q10.16,0,22.23,6.32Z"/>
</svg>
